<svg width="34" height="26" viewBox="0 0 34 26" fill="none" xmlns="http://www.w3.org/2000/svg">
<g filter="url(#filter0_d)">
<path d="M26.8228 0.314819H8.07275C6.34932 0.314819 4.94775 1.71638 4.94775 3.43982V22.1898C4.94775 23.9133 6.34932 25.3148 8.07275 25.3148H26.8228C28.5462 25.3148 29.9478 23.9133 29.9478 22.1898V3.43982C29.9478 1.71638 28.5462 0.314819 26.8228 0.314819Z" fill="#1976D2"/>
<path d="M26.0415 12.8148H22.1353V9.68982C22.1353 8.82732 22.8353 8.90857 23.6978 8.90857H25.2603V5.00232H22.1353C19.5462 5.00232 17.4478 7.10076 17.4478 9.68982V12.8148H14.3228V16.7211H17.4478V25.3148H22.1353V16.7211H24.479L26.0415 12.8148Z" fill="#FAFAFA"/>
</g>
<defs>
<filter id="filter0_d" x="0.947754" y="0.314819" width="33" height="33" filterUnits="userSpaceOnUse" color-interpolation-filters="sRGB">
<feFlood flood-opacity="0" result="BackgroundImageFix"/>
<feColorMatrix in="SourceAlpha" type="matrix" values="0 0 0 0 0 0 0 0 0 0 0 0 0 0 0 0 0 0 127 0" result="hardAlpha"/>
<feOffset dy="4"/>
<feGaussianBlur stdDeviation="2"/>
<feComposite in2="hardAlpha" operator="out"/>
<feColorMatrix type="matrix" values="0 0 0 0 0 0 0 0 0 0 0 0 0 0 0 0 0 0 0.25 0"/>
<feBlend mode="normal" in2="BackgroundImageFix" result="effect1_dropShadow"/>
<feBlend mode="normal" in="SourceGraphic" in2="effect1_dropShadow" result="shape"/>
</filter>
</defs>
</svg>
